<svg width="24" height="24" viewBox="0 0 24 24" fill="none" xmlns="http://www.w3.org/2000/svg">
<path d="M10.9707 2H8.9707C3.9707 2 1.9707 4 1.9707 9V15C1.9707 20 3.9707 22 8.9707 22H14.9707C19.9707 22 21.9707 20 21.9707 15V13" stroke="white" stroke-width="1.8" stroke-linecap="round" stroke-linejoin="round"/>
<path d="M21.6932 2.3067C19.9815 0.595026 18.3051 0.550911 16.5493 2.3067L15.4817 3.37428C15.3935 3.46252 15.3582 3.60368 15.3935 3.72721C16.0641 6.06531 17.9346 7.9358 20.2727 8.60635C20.308 8.61517 20.3432 8.624 20.3785 8.624C20.4756 8.624 20.5638 8.5887 20.6344 8.51812L21.6932 7.45053C22.5667 6.58587 22.9902 5.74768 22.9902 4.90067C22.999 4.02719 22.5755 3.18018 21.6932 2.3067Z" fill="white"/>
<path d="M18.6843 9.40926C18.4284 9.28574 18.1814 9.16221 17.9432 9.02104C17.7491 8.90634 17.5638 8.78282 17.3785 8.65048C17.2285 8.55342 17.052 8.41225 16.8844 8.27109C16.8667 8.26226 16.805 8.20932 16.7344 8.13874C16.4432 7.8917 16.1168 7.57407 15.8256 7.22114C15.7992 7.2035 15.755 7.14174 15.6933 7.06233C15.6051 6.95645 15.4551 6.77999 15.3227 6.57706C15.2168 6.44472 15.0933 6.25061 14.9786 6.0565C14.8375 5.81828 14.7139 5.58006 14.5904 5.33301C14.5717 5.29296 14.5536 5.25311 14.5361 5.21349C14.4059 4.9194 14.0224 4.83343 13.795 5.06085L8.74073 10.1151C8.62603 10.2298 8.52015 10.4504 8.49368 10.6004L8.01724 13.9796C7.92901 14.5796 8.09665 15.1442 8.46721 15.5236C8.78484 15.8324 9.22599 16.0001 9.70244 16.0001C9.80832 16.0001 9.91419 15.9912 10.0201 15.9736L13.4081 15.4972C13.5669 15.4707 13.7875 15.3648 13.8934 15.2501L18.9413 10.2022C19.1703 9.97317 19.0839 9.58014 18.7861 9.45303C18.7525 9.43872 18.7186 9.42414 18.6843 9.40926Z" fill="white"/>
</svg>
