<svg width="24" height="24" viewBox="0 0 24 24" fill="none" xmlns="http://www.w3.org/2000/svg">
<path d="M12.678 19.9571C12.9528 20.021 12.9779 20.3808 12.7103 20.47L11.1303 20.99C7.16034 22.27 5.07034 21.2 3.78034 17.23L2.50034 13.28C1.22034 9.31004 2.28034 7.21004 6.25034 5.93004L6.77434 5.75651C7.1772 5.6231 7.56927 6.02716 7.45487 6.43583C7.39817 6.6384 7.34362 6.84981 7.29034 7.07004L6.31034 11.26C5.21034 15.97 6.82034 18.57 11.5303 19.69L12.678 19.9571Z" fill="#707274"/>
<path d="M17.1702 3.21001L15.5002 2.82001C12.1602 2.03001 10.1702 2.68001 9.00018 5.10001C8.70018 5.71001 8.46018 6.45001 8.26018 7.30001L7.28018 11.49C6.30018 15.67 7.59018 17.73 11.7602 18.72L13.4402 19.12C14.0202 19.26 14.5602 19.35 15.0602 19.39C18.1802 19.69 19.8402 18.23 20.6802 14.62L21.6602 10.44C22.6402 6.26001 21.3602 4.19001 17.1702 3.21001ZM15.2902 13.33C15.2002 13.67 14.9002 13.89 14.5602 13.89C14.5002 13.89 14.4402 13.88 14.3702 13.87L11.4602 13.13C11.0602 13.03 10.8202 12.62 10.9202 12.22C11.0202 11.82 11.4302 11.58 11.8302 11.68L14.7402 12.42C15.1502 12.52 15.3902 12.93 15.2902 13.33ZM18.2202 9.95001C18.1302 10.29 17.8302 10.51 17.4902 10.51C17.4302 10.51 17.3702 10.5 17.3002 10.49L12.4502 9.26001C12.0502 9.16001 11.8102 8.75001 11.9102 8.35001C12.0102 7.95001 12.4202 7.71001 12.8202 7.81001L17.6702 9.04001C18.0802 9.13001 18.3202 9.54001 18.2202 9.95001Z" fill="#707274"/>
</svg>
