<svg width="16" height="16" viewBox="0 0 16 16" fill="none" xmlns="http://www.w3.org/2000/svg">
<g clip-path="url(#clip0_2110_991)">
<path d="M8.00065 1.33333C4.32732 1.33333 1.33398 4.32666 1.33398 8C1.33398 11.6733 4.32732 14.6667 8.00065 14.6667C11.674 14.6667 14.6673 11.6733 14.6673 8C14.6673 4.32666 11.674 1.33333 8.00065 1.33333ZM10.2407 9.53333C10.434 9.72666 10.434 10.0467 10.2407 10.24C10.1407 10.34 10.014 10.3867 9.88732 10.3867C9.76065 10.3867 9.63398 10.34 9.53399 10.24L8.00065 8.70666L6.46732 10.24C6.36732 10.34 6.24065 10.3867 6.11398 10.3867C5.98732 10.3867 5.86065 10.34 5.76065 10.24C5.56732 10.0467 5.56732 9.72666 5.76065 9.53333L7.29398 8L5.76065 6.46666C5.56732 6.27333 5.56732 5.95333 5.76065 5.76C5.95398 5.56666 6.27398 5.56666 6.46732 5.76L8.00065 7.29333L9.53399 5.76C9.72732 5.56666 10.0473 5.56666 10.2407 5.76C10.434 5.95333 10.434 6.27333 10.2407 6.46666L8.70732 8L10.2407 9.53333Z" fill="#FF4646"/>
</g>
<defs>
<clipPath id="clip0_2110_991">
<rect width="16" height="16" fill="white"/>
</clipPath>
</defs>
</svg>
