<svg width="16" height="16" viewBox="0 0 16 16" fill="none" xmlns="http://www.w3.org/2000/svg">
<path d="M10.794 1.33333H5.20732C2.78065 1.33333 1.33398 2.78 1.33398 5.20667V10.7867C1.33398 13.22 2.78065 14.6667 5.20732 14.6667H10.7873C13.214 14.6667 14.6607 13.22 14.6607 10.7933V5.20667C14.6673 2.78 13.2207 1.33333 10.794 1.33333ZM9.77398 9.15333L8.92065 9.64667L8.06732 10.14C6.96732 10.7733 6.06732 10.2533 6.06732 8.98667V8V7.01333C6.06732 5.74 6.96732 5.22667 8.06732 5.86L8.92065 6.35333L9.77398 6.84667C10.874 7.48 10.874 8.52 9.77398 9.15333Z" fill="#707274"/>
</svg>
