<svg width="24" height="24" viewBox="0 0 24 24" fill="none" xmlns="http://www.w3.org/2000/svg">
<path fill-rule="evenodd" clip-rule="evenodd" d="M17.61 10.19H20.5C21.05 10.19 21.5 10.64 21.5 11.19V16.43C21.5 20 19.01 22 15.93 22H8.07C4.99 22 2.5 20 2.5 16.43V7.57C2.5 4 4.99 2 8.07 2H12.31C12.86 2 13.31 2.45 13.31 3V5.89C13.31 8.26 15.24 10.19 17.61 10.19ZM10.2005 15.6001V17.7C10.2005 18.0866 9.88706 18.4 9.50046 18.4C9.11386 18.4 8.80046 18.0866 8.80046 17.7V15.6001H6.7C6.3134 15.6001 6 15.2867 6 14.9001C6 14.5135 6.3134 14.2001 6.7 14.2001H8.80046V12.1C8.80046 11.7134 9.11386 11.4 9.50046 11.4C9.88706 11.4 10.2005 11.7134 10.2005 12.1V14.2001L12.3 14.2001C12.6866 14.2001 13 14.5135 13 14.9001C13 15.2867 12.6866 15.6001 12.3 15.6001H10.2005Z" fill="#25272A"/>
<path d="M15.7997 2.20999C15.3897 1.79999 14.6797 2.07999 14.6797 2.64999V6.13999C14.6797 7.59999 15.9197 8.80999 17.4297 8.80999C18.3797 8.81999 19.6997 8.81999 20.8297 8.81999C21.3997 8.81999 21.6997 8.14999 21.2997 7.74999C19.8597 6.29999 17.2797 3.68999 15.7997 2.20999Z" fill="#25272A"/>
</svg>
